<?xml version="1.0" standalone="no"?>
<!DOCTYPE svg PUBLIC "-//W3C//DTD SVG 20010904//EN"
 "http://www.w3.org/TR/2001/REC-SVG-20010904/DTD/svg10.dtd">
<svg version="1.0" xmlns="http://www.w3.org/2000/svg"
 width="168.000000pt" height="168.000000pt" viewBox="0 0 168.000000 168.000000"
 preserveAspectRatio="xMidYMid meet">

<g transform="translate(0.000000,168.000000) scale(0.100000,-0.100000)"
fill="#000000" stroke="none">
<path d="M135 1665 c-51 -18 -110 -81 -124 -131 -15 -55 -15 -1097 1 -1069 6
11 16 25 22 30 7 6 23 28 36 50 13 22 50 75 82 117 32 42 58 80 58 85 0 4 21
35 45 67 l45 59 0 244 0 243 168 0 167 0 26 33 c14 17 65 89 113 160 l87 127
-343 0 c-269 -1 -352 -4 -383 -15z"/>
<path d="M460 1173 l0 -66 28 39 c16 21 36 51 46 67 l18 27 -46 0 -46 0 0 -67z"/>
<path d="M1653 1136 c-13 -16 -23 -31 -23 -35 0 -3 -14 -21 -30 -40 -17 -18
-30 -37 -30 -42 0 -4 -6 -14 -13 -21 -28 -27 -125 -176 -120 -182 4 -3 1 -6
-5 -6 -6 0 -43 -48 -82 -106 -61 -92 -84 -124 -130 -181 -6 -7 -10 -19 -10
-27 0 -8 -4 -18 -10 -21 -6 -3 -10 -52 -10 -111 l0 -104 -30 0 -30 0 0 61 0
62 -35 -44 c-19 -24 -35 -50 -35 -58 0 -7 -11 -22 -25 -33 -14 -11 -25 -25
-25 -32 0 -7 -9 -21 -20 -31 -11 -10 -20 -22 -20 -26 0 -4 -23 -38 -50 -75
-28 -37 -50 -71 -50 -75 0 -13 617 -11 665 2 53 15 120 82 134 136 8 28 10
195 9 529 l-3 489 -22 -29z m-272 -678 l54 -82 3 82 3 82 34 0 35 0 0 -140 0
-140 -29 0 c-26 0 -37 11 -90 87 l-61 87 0 -87 0 -87 -30 0 -30 0 0 140 0 140
29 0 c25 0 36 -11 82 -82z"/>
</g>
</svg>
